<?xml version="1.0" encoding="UTF-8" standalone="no"?>
<!-- Created with Inkscape (http://www.inkscape.org/) -->

<svg
   width="210mm"
   height="297mm"
   viewBox="0 0 210 297"
   version="1.1"
   id="svg5"
   inkscape:version="1.2.2 (732a01da63, 2022-12-09)"
   sodipodi:docname="Hello world.svg"
   xmlns:inkscape="http://www.inkscape.org/namespaces/inkscape"
   xmlns:sodipodi="http://sodipodi.sourceforge.net/DTD/sodipodi-0.dtd"
   xmlns="http://www.w3.org/2000/svg"
   xmlns:svg="http://www.w3.org/2000/svg">
  <sodipodi:namedview
     id="namedview7"
     pagecolor="#ffffff"
     bordercolor="#000000"
     borderopacity="0.25"
     inkscape:showpageshadow="2"
     inkscape:pageopacity="0.0"
     inkscape:pagecheckerboard="0"
     inkscape:deskcolor="#d1d1d1"
     inkscape:document-units="mm"
     showgrid="false"
     inkscape:zoom="1.1893044"
     inkscape:cx="410.32388"
     inkscape:cy="365.33961"
     inkscape:window-width="1920"
     inkscape:window-height="1112"
     inkscape:window-x="-8"
     inkscape:window-y="-8"
     inkscape:window-maximized="1"
     inkscape:current-layer="layer1" />
  <defs
     id="defs2">
    <rect
       x="104.26263"
       y="107.62594"
       width="348.94347"
       height="115.19339"
       id="rect117" />
  </defs>
  <g
     inkscape:label="Layer 1"
     inkscape:groupmode="layer"
     id="layer1">
    <g
       aria-label="Hello World"
       transform="scale(0.26458333)"
       id="text115"
       style="font-size:48px;white-space:pre;shape-inside:url(#rect117);display:inline">
      <path
         d="m 121.20703,134.63561 -2.92969,14.76562 q -0.46875,2.15625 -0.46875,3.07031 0,0.49219 0.28125,1.21875 -2.36718,1.19532 -4.28906,1.19532 -1.24219,0 -1.24219,-0.98438 0,-0.49219 0.46875,-2.90625 l 3.25782,-16.35937 h -0.96094 q -3.44531,0 -7.125,1.92187 0.98437,-2.83594 2.60156,-3.82031 1.61719,-0.98438 5.25,-0.98438 h 0.82031 l 2.41407,-12.16406 q -2.0625,0.30469 -3.84375,0.30469 -3.70313,0 -4.38282,-4.875 1.6875,1.40625 4.54688,1.40625 3.72656,0 9.375,-0.72656 l -3.21094,16.05468 h 12.32813 q 2.22656,-10.00781 4.6875,-14.85937 1.35937,-2.64844 2.46093,-3.35156 1.10157,-0.70313 4.33594,-0.9375 0.39844,-0.0469 1.19531,-0.0937 -5.55468,6.375 -7.875,19.24218 h 0.42188 q 1.82812,0 4.54687,-1.66406 -0.5625,4.54688 -4.52343,4.54688 h -1.03125 q -0.70313,3.65625 -0.70313,7.71093 0,6.75 4.14844,6.75 1.71094,0 3.79687,-1.45312 -0.35156,4.64062 -6.09375,4.64062 -6.72656,0 -6.72656,-10.26562 0,-3.46875 0.79688,-7.38281 z"
         style="font-family:'Lucida Handwriting';-inkscape-font-specification:'Lucida Handwriting'"
         id="path186" />
      <path
         d="m 156.71484,141.66686 q 0,6.86718 5.8125,6.86718 5.03907,0 11.10938,-4.80468 6.07031,-4.80469 10.94531,-12.65625 l 1.99219,1.10156 q -4.59375,8.57812 -11.95313,14.20312 -7.33593,5.625 -13.92187,5.625 -4.21875,0 -6.67969,-2.71875 -2.4375,-2.71875 -2.4375,-7.42968 0,-6.79688 4.42969,-11.625 4.45312,-4.82813 10.71094,-4.82813 3.02343,0 4.82812,1.52344 1.82813,1.52344 1.82813,4.07812 0,4.19532 -5.0625,7.42969 -5.03907,3.23438 -11.60157,3.23438 z m 0.1875,-2.25 q 4.89844,-0.25782 8.39063,-2.8125 3.51562,-2.55469 3.51562,-5.90625 0,-3 -2.67187,-3 -3.1875,0 -5.88281,3.42187 -2.69532,3.42188 -3.35157,8.29688 z"
         style="font-family:'Lucida Handwriting';-inkscape-font-specification:'Lucida Handwriting'"
         id="path188" />
      <path
         d="m 206.05078,132.31529 q -4.85156,9.21094 -9.75,14.46094 -4.89844,5.22656 -8.67187,5.22656 -2.74219,0 -4.42969,-2.10937 -1.6875,-2.13281 -1.6875,-5.55469 0,-1.92187 0.70312,-5.4375 l 4.66407,-23.48437 q -0.91407,0.14062 -1.59375,0.14062 -5.39063,0 -5.39063,-4.5 v -0.53906 q 2.8125,1.59375 6.35156,1.59375 3.53907,0 6.1875,-1.75781 l -5.4375,28.19531 q -0.72656,3.79687 -0.72656,5.22656 0,3.96094 2.90625,3.96094 2.8125,0 5.64844,-3.16406 2.85937,-3.1875 9.35156,-13.54688 z"
         style="font-family:'Lucida Handwriting';-inkscape-font-specification:'Lucida Handwriting'"
         id="path190" />
      <path
         d="m 225.55078,132.31529 q -4.85156,9.21094 -9.75,14.46094 -4.89844,5.22656 -8.67187,5.22656 -2.74219,0 -4.42969,-2.10937 -1.6875,-2.13281 -1.6875,-5.55469 0,-1.92187 0.70312,-5.4375 l 4.66407,-23.48437 q -0.91407,0.14062 -1.59375,0.14062 -5.39063,0 -5.39063,-4.5 v -0.53906 q 2.8125,1.59375 6.35156,1.59375 3.53907,0 6.1875,-1.75781 l -5.4375,28.19531 q -0.72656,3.79687 -0.72656,5.22656 0,3.96094 2.90625,3.96094 2.8125,0 5.64844,-3.16406 2.85937,-3.1875 9.35156,-13.54688 z"
         style="font-family:'Lucida Handwriting';-inkscape-font-specification:'Lucida Handwriting'"
         id="path192" />
      <path
         d="m 244.18359,134.14342 q 0.0703,0.5625 0.0703,1.00781 0,6.77344 -4.59375,11.8125 -4.59375,5.03906 -10.75782,5.03906 -4.71093,0 -7.6875,-3 -2.95312,-3.02343 -2.95312,-7.82812 0,-5.46094 3.82031,-9.46875 3.84375,-4.00781 9.04688,-4.00781 0.79687,0 1.6875,0.21093 -0.58594,-1.05468 -0.58594,-1.78125 0,-1.125 0.77344,-2.15625 5.71875,0.46875 9.51562,5.85938 3.89063,2.64844 8.10938,2.64844 2.74218,0 5.92968,-1.85157 l 1.17188,1.99219 q -3.72656,2.60156 -7.64063,2.60156 -2.60156,0 -5.90625,-1.07812 z m -5.32031,-1.99219 q -1.94531,-0.58594 -3.58594,-1.875 -1.19531,-0.25781 -1.99218,-0.25781 -3.98438,0 -7.07813,3.58594 -3.07031,3.58593 -3.07031,8.17968 0,3.32813 1.85156,5.48438 1.875,2.13281 4.80469,2.13281 3.96094,0 6.82031,-3.98437 2.85938,-4.00782 2.85938,-9.53907 0,-1.92187 -0.60938,-3.72656 z"
         style="font-family:'Lucida Handwriting';-inkscape-font-specification:'Lucida Handwriting'"
         id="path194" />
      <path
         d="m 270.83203,152.40123 q 0.60938,-2.39062 0.60938,-6.25781 0,-9.51563 -1.5,-18.32813 -1.47657,-8.83593 -3.82032,-13.26562 2.39063,-0.58594 3.46875,-0.58594 1.54688,0 2.25,1.45313 0.72657,1.45312 1.82813,6.86718 1.71094,8.29688 2.48437,22.73438 7.82813,-16.125 12.77344,-25.28906 0.30469,-0.0469 0.44531,-0.0703 0.98438,-0.21093 1.33594,-0.21093 1.94531,0 1.94531,1.85156 0,0.53906 -0.11718,1.33594 -0.9375,7.61718 -0.9375,11.25 l -0.0703,2.67187 -0.0234,1.59375 q 0,8.78906 2.67187,8.78906 3.04688,0 6.23438,-6.375 3.53906,-7.125 3.53906,-16.64062 0,-4.10156 -2.03906,-7.64063 1.6875,-0.42187 3.07031,-0.42187 2.15625,0 3.04687,1.21875 0.89063,1.19531 0.89063,4.17187 0,9.63282 -5.55469,19.64063 -2.55469,4.59375 -5.76562,7.57031 -3.1875,2.97656 -5.57813,2.97656 -2.67187,0 -3.77344,-2.97656 -1.07812,-2.97656 -1.07812,-10.28906 0,-2.92969 0.30469,-9 -5.64844,9.79687 -8.625,16.17187 l -0.77344,1.71094 q -1.66406,3.42188 -2.64844,4.14844 -0.96094,0.72656 -4.59375,1.19531 z"
         style="font-family:'Lucida Handwriting';-inkscape-font-specification:'Lucida Handwriting'"
         id="path196" />
      <path
         d="m 338.07422,134.14342 q 0.0703,0.5625 0.0703,1.00781 0,6.77344 -4.59375,11.8125 -4.59375,5.03906 -10.75781,5.03906 -4.71094,0 -7.6875,-3 -2.95313,-3.02343 -2.95313,-7.82812 0,-5.46094 3.82032,-9.46875 3.84375,-4.00781 9.04687,-4.00781 0.79688,0 1.6875,0.21093 -0.58594,-1.05468 -0.58594,-1.78125 0,-1.125 0.77344,-2.15625 5.71875,0.46875 9.51563,5.85938 3.89062,2.64844 8.10937,2.64844 2.74219,0 5.92969,-1.85157 l 1.17187,1.99219 q -3.72656,2.60156 -7.64062,2.60156 -2.60156,0 -5.90625,-1.07812 z m -5.32031,-1.99219 q -1.94532,-0.58594 -3.58594,-1.875 -1.19531,-0.25781 -1.99219,-0.25781 -3.98437,0 -7.07812,3.58594 -3.07032,3.58593 -3.07032,8.17968 0,3.32813 1.85157,5.48438 1.875,2.13281 4.80468,2.13281 3.96094,0 6.82032,-3.98437 2.85937,-4.00782 2.85937,-9.53907 0,-1.92187 -0.60937,-3.72656 z"
         style="font-family:'Lucida Handwriting';-inkscape-font-specification:'Lucida Handwriting'"
         id="path198" />
      <path
         d="m 350.82422,151.25279 q -1.59375,0.75 -2.55469,0.75 -2.39062,0 -2.39062,-2.10937 0,-1.07813 0.84375,-5.36719 l 1.17187,-5.83594 q 1.07813,-5.20312 1.07813,-7.71093 0,-1.35938 -0.77344,-2.27344 2.46094,-0.84375 4.00781,-0.84375 1.64063,0 1.64063,2.08594 0,1.28906 -1.17188,6.77343 l -1.33594,6.82032 q 4.42969,-8.60157 8.90625,-13.35938 4.5,-4.78125 8.15625,-4.78125 1.28907,0 2.22657,0.75 0.9375,0.72656 0.9375,1.78125 0,1.64063 -3.5625,4.35938 -0.89063,-1.85157 -2.53125,-1.85157 -2.97657,0 -7.59375,6.32813 -2.85938,3.9375 -4.96875,8.13281 -2.10938,4.17188 -2.10938,5.95313 z"
         style="font-family:'Lucida Handwriting';-inkscape-font-specification:'Lucida Handwriting'"
         id="path200" />
      <path
         d="m 397.08984,132.31529 q -4.85156,9.21094 -9.75,14.46094 -4.89843,5.22656 -8.67187,5.22656 -2.74219,0 -4.42969,-2.10937 -1.6875,-2.13281 -1.6875,-5.55469 0,-1.92187 0.70313,-5.4375 l 4.66406,-23.48437 q -0.91406,0.14062 -1.59375,0.14062 -5.39063,0 -5.39063,-4.5 v -0.53906 q 2.8125,1.59375 6.35157,1.59375 3.53906,0 6.1875,-1.75781 l -5.4375,28.19531 q -0.72657,3.79687 -0.72657,5.22656 0,3.96094 2.90625,3.96094 2.8125,0 5.64844,-3.16406 2.85938,-3.1875 9.35156,-13.54688 z"
         style="font-family:'Lucida Handwriting';-inkscape-font-specification:'Lucida Handwriting'"
         id="path202" />
      <path
         d="m 410.42578,137.70592 q -3.65625,6.58594 -7.66406,10.45312 -3.98438,3.84375 -7.125,3.84375 -2.50781,0 -3.98438,-2.17968 -1.47656,-2.20313 -1.47656,-5.88282 0,-7.40625 4.40625,-12.96093 4.40625,-5.57813 10.24219,-5.57813 3.49219,0 7.61719,2.22656 l 2.50781,-12.63281 q -2.0625,0.42188 -3.42188,0.42188 -2.0625,0 -3.02343,-0.96094 -0.96094,-0.98438 -1.54688,-3.65625 1.6875,1.14844 5.17969,1.14844 4.33594,0 8.36719,-1.59375 l -5.10938,25.6875 q -0.86719,4.3125 -0.86719,7.33593 0,4.03125 2.29688,4.03125 2.25,0 7.47656,-5.27343 5.25,-5.27344 8.74219,-11.03907 l 1.92187,1.21875 q -4.17187,7.64063 -10.42968,13.66407 -6.23438,6.02343 -9.96094,6.02343 -4.73438,0 -4.73438,-7.59375 0,-3.14062 0.58594,-6.70312 z m 1.24219,-6.21094 q -4.875,-3.21094 -8.10938,-3.21094 -3.51562,0 -6.09375,4.3125 -2.55468,4.3125 -2.55468,10.19532 0,4.73437 3.09375,4.73437 3.32812,0 12.79687,-14.71875 0.16406,-0.25781 0.86719,-1.3125 z"
         style="font-family:'Lucida Handwriting';-inkscape-font-specification:'Lucida Handwriting'"
         id="path204" />
    </g>
  </g>
</svg>
